<svg width="25" height="25" viewBox="0 0 25 25" fill="none" xmlns="http://www.w3.org/2000/svg">
<path d="M12.8738 2.31458C10.9454 2.31458 9.06035 2.8864 7.45697 3.95775C5.85359 5.02909 4.60391 6.55183 3.86596 8.33341C3.128 10.115 2.93492 12.0754 3.31113 13.9667C3.68733 15.858 4.61593 17.5953 5.97949 18.9589C7.34305 20.3224 9.08034 21.251 10.9717 21.6272C12.863 22.0034 14.8234 21.8104 16.6049 21.0724C18.3865 20.3344 19.9093 19.0848 20.9806 17.4814C22.052 15.878 22.6238 13.9929 22.6238 12.0646C22.6188 9.48024 21.59 7.00316 19.7626 5.17576C17.9352 3.34835 15.4581 2.31953 12.8738 2.31458ZM12.6863 6.81458C12.9088 6.81458 13.1263 6.88056 13.3113 7.00417C13.4963 7.12779 13.6405 7.30349 13.7256 7.50906C13.8108 7.71462 13.8331 7.94082 13.7897 8.15905C13.7463 8.37728 13.6391 8.57774 13.4818 8.73507C13.3244 8.8924 13.124 8.99955 12.9058 9.04296C12.6875 9.08637 12.4613 9.06409 12.2558 8.97894C12.0502 8.89379 11.8745 8.7496 11.7509 8.56459C11.6273 8.37959 11.5613 8.16208 11.5613 7.93958C11.5613 7.64121 11.6798 7.35506 11.8908 7.14408C12.1018 6.9331 12.3879 6.81458 12.6863 6.81458ZM13.6238 17.3146H12.8738C12.6749 17.3146 12.4841 17.2356 12.3435 17.0949C12.2028 16.9543 12.1238 16.7635 12.1238 16.5646V12.0646C11.9249 12.0646 11.7341 11.9856 11.5935 11.8449C11.4528 11.7043 11.3738 11.5135 11.3738 11.3146C11.3738 11.1157 11.4528 10.9249 11.5935 10.7842C11.7341 10.6436 11.9249 10.5646 12.1238 10.5646H12.8738C13.0727 10.5646 13.2635 10.6436 13.4041 10.7842C13.5448 10.9249 13.6238 11.1157 13.6238 11.3146V15.8146C13.8227 15.8146 14.0135 15.8936 14.1541 16.0342C14.2948 16.1749 14.3738 16.3657 14.3738 16.5646C14.3738 16.7635 14.2948 16.9543 14.1541 17.0949C14.0135 17.2356 13.8227 17.3146 13.6238 17.3146Z" fill="#1A1A1A"/>
</svg>
