<svg width="25" height="25" viewBox="0 0 25 25" fill="none" xmlns="http://www.w3.org/2000/svg">
<path d="M12.3582 2.80042V22.3004" stroke="#1A1A1A" stroke-width="1.5" stroke-linecap="round" stroke-linejoin="round"/>
<path d="M17.6082 8.80042C17.6082 8.30796 17.5112 7.82032 17.3227 7.36535C17.1342 6.91038 16.858 6.49698 16.5098 6.14876C16.1616 5.80054 15.7482 5.52432 15.2932 5.33587C14.8382 5.14741 14.3506 5.05042 13.8582 5.05042H10.4832C9.48859 5.05042 8.53477 5.4455 7.8315 6.14876C7.12824 6.85203 6.73315 7.80585 6.73315 8.80042C6.73315 9.79498 7.12824 10.7488 7.8315 11.4521C8.53477 12.1553 9.48859 12.5504 10.4832 12.5504H14.6082C15.6027 12.5504 16.5565 12.9455 17.2598 13.6488C17.9631 14.352 18.3582 15.3059 18.3582 16.3004C18.3582 17.295 17.9631 18.2488 17.2598 18.9521C16.5565 19.6553 15.6027 20.0504 14.6082 20.0504H10.1082C9.11359 20.0504 8.15977 19.6553 7.4565 18.9521C6.75324 18.2488 6.35815 17.295 6.35815 16.3004" stroke="#1A1A1A" stroke-width="1.5" stroke-linecap="round" stroke-linejoin="round"/>
</svg>
