<svg width="25" height="25" viewBox="0 0 25 25" fill="none" xmlns="http://www.w3.org/2000/svg">
<path d="M12.3582 21.5504C17.3287 21.5504 21.3582 17.521 21.3582 12.5504C21.3582 7.57985 17.3287 3.55042 12.3582 3.55042C7.38759 3.55042 3.35815 7.57985 3.35815 12.5504C3.35815 17.521 7.38759 21.5504 12.3582 21.5504Z" stroke="#1A1A1A" stroke-width="1.5" stroke-linecap="round" stroke-linejoin="round"/>
<path d="M12.3582 13.4879C12.8759 13.4879 13.2957 13.0682 13.2957 12.5504C13.2957 12.0326 12.8759 11.6129 12.3582 11.6129C11.8404 11.6129 11.4207 12.0326 11.4207 12.5504C11.4207 13.0682 11.8404 13.4879 12.3582 13.4879Z" fill="#1A1A1A"/>
<path d="M7.85815 13.4879C8.37592 13.4879 8.79565 13.0682 8.79565 12.5504C8.79565 12.0326 8.37592 11.6129 7.85815 11.6129C7.34039 11.6129 6.92065 12.0326 6.92065 12.5504C6.92065 13.0682 7.34039 13.4879 7.85815 13.4879Z" fill="#1A1A1A"/>
<path d="M16.8582 13.4879C17.3759 13.4879 17.7957 13.0682 17.7957 12.5504C17.7957 12.0326 17.3759 11.6129 16.8582 11.6129C16.3404 11.6129 15.9207 12.0326 15.9207 12.5504C15.9207 13.0682 16.3404 13.4879 16.8582 13.4879Z" fill="#1A1A1A"/>
</svg>
