<svg width="25" height="25" viewBox="0 0 25 25" fill="none" xmlns="http://www.w3.org/2000/svg">
<path d="M12.3584 21.5504C17.329 21.5504 21.3584 17.521 21.3584 12.5504C21.3584 7.57985 17.329 3.55042 12.3584 3.55042C7.38784 3.55042 3.3584 7.57985 3.3584 12.5504C3.3584 17.521 7.38784 21.5504 12.3584 21.5504Z" stroke="#1A1A1A" stroke-width="1.5" stroke-linecap="round" stroke-linejoin="round"/>
<path d="M13.6146 12.9817C14.1269 12.7025 14.5315 12.2606 14.7647 11.7259C14.9978 11.1911 15.0462 10.5939 14.9021 10.0286C14.7581 9.46328 14.4298 8.96206 13.9692 8.60409C13.5085 8.24612 12.9418 8.05179 12.3584 8.05179C11.775 8.05179 11.2083 8.24612 10.7476 8.60409C10.287 8.96206 9.95874 9.46328 9.81469 10.0286C9.67063 10.5939 9.719 11.1911 9.95214 11.7259C10.1853 12.2606 10.5899 12.7025 11.1021 12.9817L9.8084 16.0004C9.75869 16.1143 9.73806 16.2388 9.74837 16.3626C9.75868 16.4865 9.7996 16.6058 9.86746 16.71C9.93532 16.8141 10.028 16.8997 10.1371 16.9591C10.2463 17.0185 10.3685 17.0499 10.4928 17.0504H14.224C14.3483 17.0499 14.4705 17.0185 14.5797 16.9591C14.6888 16.8997 14.7815 16.8141 14.8493 16.71C14.9172 16.6058 14.9581 16.4865 14.9684 16.3626C14.9787 16.2388 14.9581 16.1143 14.9084 16.0004L13.6146 12.9817Z" stroke="#1A1A1A" stroke-width="1.5" stroke-linecap="round" stroke-linejoin="round"/>
</svg>
