<svg width="25" height="25" viewBox="0 0 25 25" fill="none" xmlns="http://www.w3.org/2000/svg">
<path d="M12.3582 13.3004C14.015 13.3004 15.3582 11.9573 15.3582 10.3004C15.3582 8.64356 14.015 7.30042 12.3582 7.30042C10.7013 7.30042 9.35815 8.64356 9.35815 10.3004C9.35815 11.9573 10.7013 13.3004 12.3582 13.3004Z" stroke="#1A1A1A" stroke-width="1.5" stroke-linecap="round" stroke-linejoin="round"/>
<path d="M19.8582 10.3004C19.8582 17.0504 12.3582 22.3004 12.3582 22.3004C12.3582 22.3004 4.85815 17.0504 4.85815 10.3004C4.85815 8.31129 5.64833 6.40364 7.05485 4.99711C8.46138 3.59059 10.369 2.80042 12.3582 2.80042C14.3473 2.80042 16.2549 3.59059 17.6615 4.99711C19.068 6.40364 19.8582 8.31129 19.8582 10.3004V10.3004Z" stroke="#1A1A1A" stroke-width="1.5" stroke-linecap="round" stroke-linejoin="round"/>
</svg>
