<svg width="25" height="25" viewBox="0 0 25 25" fill="none" xmlns="http://www.w3.org/2000/svg">
<path d="M9.35815 11.0504H16.8582" stroke="#1A1A1A" stroke-width="1.5" stroke-linecap="round" stroke-linejoin="round"/>
<path d="M9.35815 14.0504H16.8582" stroke="#1A1A1A" stroke-width="1.5" stroke-linecap="round" stroke-linejoin="round"/>
<path d="M3.35815 19.3004C3.75598 19.3004 4.13751 19.1424 4.41881 18.8611C4.70012 18.5798 4.85815 18.1982 4.85815 17.8004V6.55042C4.85815 6.3515 4.93717 6.16074 5.07782 6.02009C5.21848 5.87943 5.40924 5.80042 5.60815 5.80042H20.6082C20.8071 5.80042 20.9978 5.87943 21.1385 6.02009C21.2791 6.16074 21.3582 6.3515 21.3582 6.55042V17.8004C21.3582 18.1982 21.2001 18.5798 20.9188 18.8611C20.6375 19.1424 20.256 19.3004 19.8582 19.3004H3.35815Z" stroke="#1A1A1A" stroke-width="1.5" stroke-linecap="round" stroke-linejoin="round"/>
<path d="M3.35815 19.3004C2.96033 19.3004 2.5788 19.1424 2.29749 18.8611C2.01619 18.5798 1.85815 18.1982 1.85815 17.8004V8.80042" stroke="#1A1A1A" stroke-width="1.5" stroke-linecap="round" stroke-linejoin="round"/>
</svg>
