<svg width="25" height="25" viewBox="0 0 25 25" fill="none" xmlns="http://www.w3.org/2000/svg">
<path d="M12.3582 21.5504C17.3287 21.5504 21.3582 17.521 21.3582 12.5504C21.3582 7.57985 17.3287 3.55042 12.3582 3.55042C7.38759 3.55042 3.35815 7.57985 3.35815 12.5504C3.35815 17.521 7.38759 21.5504 12.3582 21.5504Z" stroke="#1A1A1A" stroke-width="1.5" stroke-linecap="round" stroke-linejoin="round"/>
<path d="M12.3582 18.3629C12.8759 18.3629 13.2957 17.9432 13.2957 17.4254C13.2957 16.9076 12.8759 16.4879 12.3582 16.4879C11.8404 16.4879 11.4207 16.9076 11.4207 17.4254C11.4207 17.9432 11.8404 18.3629 12.3582 18.3629Z" fill="#1A1A1A"/>
<path d="M12.3582 14.0504V13.3004C12.8773 13.3004 13.3848 13.1465 13.8165 12.858C14.2482 12.5696 14.5847 12.1596 14.7833 11.68C14.982 11.2003 15.034 10.6725 14.9327 10.1633C14.8314 9.6541 14.5814 9.18637 14.2143 8.81926C13.8472 8.45215 13.3795 8.20214 12.8703 8.10085C12.3611 7.99957 11.8333 8.05155 11.3536 8.25023C10.874 8.44891 10.464 8.78537 10.1755 9.21704C9.88711 9.64872 9.73315 10.1562 9.73315 10.6754" stroke="#1A1A1A" stroke-width="1.5" stroke-linecap="round" stroke-linejoin="round"/>
</svg>
