<svg width="25" height="25" viewBox="0 0 25 25" fill="none" xmlns="http://www.w3.org/2000/svg">
<path d="M4.61441 17.1442C3.49774 15.2602 3.10715 13.0334 3.51595 10.8818C3.92475 8.73025 5.10484 6.80188 6.83468 5.45873C8.56451 4.11559 10.7251 3.45003 12.9109 3.58701C15.0967 3.72399 17.1573 4.65409 18.7059 6.2027C20.2545 7.75131 21.1846 9.81192 21.3216 11.9977C21.4586 14.1835 20.793 16.3441 19.4499 18.0739C18.1067 19.8037 16.1783 20.9838 14.0268 21.3926C11.8752 21.8014 9.6484 21.4108 7.76441 20.2942V20.2942L4.65191 21.1754C4.52439 21.2127 4.38919 21.215 4.26047 21.1821C4.13175 21.1492 4.01426 21.0822 3.92031 20.9883C3.82636 20.8943 3.75941 20.7768 3.72649 20.6481C3.69356 20.5194 3.69587 20.3842 3.73316 20.2567L4.61441 17.1442Z" stroke="#1A1A1A" stroke-width="1.5" stroke-linecap="round" stroke-linejoin="round"/>
<path d="M14.6176 17.8004C13.6307 17.8029 12.6531 17.6103 11.7409 17.2338C10.8287 16.8573 9.99991 16.3043 9.30211 15.6065C8.6043 14.9087 8.05126 14.0799 7.67476 13.1677C7.29825 12.2555 7.1057 11.2779 7.10818 10.291C7.11066 9.59646 7.38831 8.93119 7.88033 8.44093C8.37234 7.95068 9.03861 7.6754 9.73318 7.6754V7.6754C9.84777 7.67449 9.9605 7.70448 10.0595 7.76223C10.1585 7.81997 10.2401 7.90333 10.2957 8.00353L11.3926 9.91603C11.4578 10.0323 11.4913 10.1637 11.4896 10.297C11.488 10.4303 11.4513 10.5608 11.3832 10.6754L10.5019 12.1473C10.9533 13.1514 11.7572 13.9553 12.7613 14.4067L14.2332 13.5254C14.3478 13.4573 14.4783 13.4206 14.6116 13.419C14.7449 13.4173 14.8763 13.4508 14.9926 13.516L16.9051 14.6129C17.0053 14.6685 17.0886 14.7501 17.1464 14.8491C17.2041 14.9481 17.2341 15.0608 17.2332 15.1754C17.2307 15.8692 16.9547 16.5341 16.4649 17.0255C15.9752 17.517 15.3114 17.7955 14.6176 17.8004V17.8004Z" stroke="#1A1A1A" stroke-width="1.5" stroke-linecap="round" stroke-linejoin="round"/>
</svg>
