<svg width="25" height="25" viewBox="0 0 25 25" fill="none" xmlns="http://www.w3.org/2000/svg">
<path d="M3.55496 13.741C2.71436 12.3248 2.41972 10.6504 2.72639 9.03233C3.03305 7.41423 3.91991 5.96376 5.22042 4.95332C6.52092 3.94288 8.14558 3.44201 9.78928 3.54476C11.433 3.64752 12.9826 4.34683 14.1471 5.51137C15.3117 6.67591 16.011 8.22554 16.1138 9.86924C16.2165 11.5129 15.7156 13.1376 14.7052 14.4381C13.6948 15.7386 12.2443 16.6255 10.6262 16.9321C9.00808 17.2388 7.33368 16.9442 5.91746 16.1035L3.58309 16.7692C3.48691 16.7962 3.38526 16.7972 3.2886 16.7719C3.19193 16.7466 3.10374 16.6961 3.0331 16.6254C2.96245 16.5548 2.91189 16.4666 2.88663 16.3699C2.86136 16.2733 2.8623 16.1716 2.88934 16.0754L3.55496 13.741Z" stroke="#1A1A1A" stroke-width="1.5" stroke-linecap="round" stroke-linejoin="round"/>
<path d="M8.99243 17.041C9.32285 17.9831 9.85839 18.84 10.5604 19.5498C11.2623 20.2596 12.1132 20.8047 13.0515 21.1456C13.9898 21.4864 14.9922 21.6146 15.9861 21.5209C16.98 21.4272 17.9406 21.1138 18.7987 20.6035V20.6035L21.1331 21.2692C21.2292 21.2962 21.3309 21.2971 21.4276 21.2719C21.5242 21.2466 21.6124 21.196 21.683 21.1254C21.7537 21.0548 21.8043 20.9666 21.8295 20.8699C21.8548 20.7732 21.8538 20.6716 21.8268 20.5754L21.1612 18.241C21.7554 17.2435 22.0819 16.1095 22.1091 14.9487C22.1362 13.7879 21.8631 12.6398 21.3161 11.6157C20.7691 10.5915 19.9669 9.72598 18.9871 9.10299C18.0073 8.48 16.8832 8.12065 15.7237 8.05978" stroke="#1A1A1A" stroke-width="1.5" stroke-linecap="round" stroke-linejoin="round"/>
</svg>
