<svg width="25" height="25" viewBox="0 0 25 25" fill="none" xmlns="http://www.w3.org/2000/svg">
<path d="M12.3582 13.4879C12.8759 13.4879 13.2957 13.0682 13.2957 12.5504C13.2957 12.0326 12.8759 11.6129 12.3582 11.6129C11.8404 11.6129 11.4207 12.0326 11.4207 12.5504C11.4207 13.0682 11.8404 13.4879 12.3582 13.4879Z" fill="#1A1A1A"/>
<path d="M6.35815 13.4879C6.87592 13.4879 7.29565 13.0682 7.29565 12.5504C7.29565 12.0326 6.87592 11.6129 6.35815 11.6129C5.84039 11.6129 5.42065 12.0326 5.42065 12.5504C5.42065 13.0682 5.84039 13.4879 6.35815 13.4879Z" fill="#1A1A1A"/>
<path d="M18.3582 13.4879C18.8759 13.4879 19.2957 13.0682 19.2957 12.5504C19.2957 12.0326 18.8759 11.6129 18.3582 11.6129C17.8404 11.6129 17.4207 12.0326 17.4207 12.5504C17.4207 13.0682 17.8404 13.4879 18.3582 13.4879Z" fill="#1A1A1A"/>
</svg>
