<svg width="25" height="25" viewBox="0 0 25 25" fill="none" xmlns="http://www.w3.org/2000/svg">
<path d="M12.3586 7.48792C12.8764 7.48792 13.2961 7.06818 13.2961 6.55042C13.2961 6.03265 12.8764 5.61292 12.3586 5.61292C11.8409 5.61292 11.4211 6.03265 11.4211 6.55042C11.4211 7.06818 11.8409 7.48792 12.3586 7.48792Z" fill="#1A1A1A"/>
<path d="M12.3586 13.4879C12.8764 13.4879 13.2961 13.0682 13.2961 12.5504C13.2961 12.0326 12.8764 11.6129 12.3586 11.6129C11.8409 11.6129 11.4211 12.0326 11.4211 12.5504C11.4211 13.0682 11.8409 13.4879 12.3586 13.4879Z" fill="#1A1A1A"/>
<path d="M12.3586 19.4879C12.8764 19.4879 13.2961 19.0682 13.2961 18.5504C13.2961 18.0326 12.8764 17.6129 12.3586 17.6129C11.8409 17.6129 11.4211 18.0326 11.4211 18.5504C11.4211 19.0682 11.8409 19.4879 12.3586 19.4879Z" fill="#1A1A1A"/>
</svg>
