<svg width="25" height="25" viewBox="0 0 25 25" fill="none" xmlns="http://www.w3.org/2000/svg">
<path d="M12.3582 17.0504C14.8434 17.0504 16.8582 15.0357 16.8582 12.5504C16.8582 10.0651 14.8434 8.05042 12.3582 8.05042C9.87287 8.05042 7.85815 10.0651 7.85815 12.5504C7.85815 15.0357 9.87287 17.0504 12.3582 17.0504Z" stroke="#1A1A1A" stroke-width="1.5" stroke-linecap="round" stroke-linejoin="round"/>
<path d="M17.5799 6.65353C17.8174 6.87228 18.0424 7.09728 18.2549 7.32853L20.8143 7.69416C21.2313 8.41838 21.5527 9.19359 21.7706 10.0004L20.2143 12.0723C20.2143 12.0723 20.2424 12.7098 20.2143 13.0285L21.7706 15.1004C21.5538 15.9076 21.2323 16.6829 20.8143 17.4067L18.2549 17.7723C18.2549 17.7723 17.8143 18.2317 17.5799 18.4473L17.2143 21.0067C16.4901 21.4237 15.7149 21.7451 14.9081 21.9629L12.8362 20.4067C12.5181 20.4348 12.1981 20.4348 11.8799 20.4067L9.80806 21.9629C9.00089 21.7461 8.22556 21.4246 7.50181 21.0067L7.13618 18.4473C6.90493 18.2285 6.67993 18.0035 6.46118 17.7723L3.90181 17.4067C3.48479 16.6824 3.16336 15.9072 2.94556 15.1004L4.50181 13.0285C4.50181 13.0285 4.47368 12.391 4.50181 12.0723L2.94556 10.0004C3.16235 9.19324 3.48383 8.41791 3.90181 7.69416L6.46118 7.32853C6.67993 7.09728 6.90493 6.87228 7.13618 6.65353L7.50181 4.09416C8.22603 3.67714 9.00123 3.35572 9.80806 3.13791L11.8799 4.69416C12.1981 4.66603 12.5181 4.66603 12.8362 4.69416L14.9081 3.13791C15.7152 3.35471 16.4906 3.67619 17.2143 4.09416L17.5799 6.65353Z" stroke="#1A1A1A" stroke-width="1.5" stroke-linecap="round" stroke-linejoin="round"/>
</svg>
