<svg width="25" height="25" viewBox="0 0 25 25" fill="none" xmlns="http://www.w3.org/2000/svg">
<path d="M12.3586 21.5504C17.3292 21.5504 21.3586 17.521 21.3586 12.5504C21.3586 7.57985 17.3292 3.55042 12.3586 3.55042C7.38808 3.55042 3.35864 7.57985 3.35864 12.5504C3.35864 17.521 7.38808 21.5504 12.3586 21.5504Z" stroke="#1A1A1A" stroke-width="1.5" stroke-linecap="round" stroke-linejoin="round"/>
<path d="M20.4399 16.5254L15.3493 13.3942C15.2617 13.3378 15.1622 13.3025 15.0587 13.291L12.9118 13.0004C12.7516 12.9774 12.5883 13.0082 12.4475 13.0879C12.3067 13.1677 12.1963 13.2918 12.1337 13.441L10.8493 16.3192C10.7889 16.453 10.7692 16.6017 10.7925 16.7467C10.8158 16.8917 10.8812 17.0266 10.9805 17.1348L12.743 19.0379C12.8227 19.1255 12.8811 19.2303 12.9136 19.3441C12.9461 19.4579 12.9519 19.5777 12.9305 19.6942L12.5649 21.5504" stroke="#1A1A1A" stroke-width="1.5" stroke-linecap="round" stroke-linejoin="round"/>
<path d="M6.45243 5.76294L5.60868 7.75044C5.53519 7.92688 5.53184 8.12473 5.59931 8.30356L6.67743 11.1723C6.71957 11.2919 6.79169 11.3986 6.8869 11.4824C6.9821 11.5661 7.0972 11.6239 7.22118 11.6504L9.22743 12.0817C9.33879 12.1042 9.44336 12.1524 9.53286 12.2223C9.62237 12.2923 9.69433 12.3822 9.74306 12.4848L10.0993 13.2254C10.1626 13.3507 10.259 13.4562 10.378 13.5305C10.4969 13.6049 10.634 13.6453 10.7743 13.6473H12.0399" stroke="#1A1A1A" stroke-width="1.5" stroke-linecap="round" stroke-linejoin="round"/>
<path d="M14.6554 3.84106L15.5273 5.41606C15.6078 5.56414 15.6367 5.73478 15.6096 5.90112C15.5824 6.06746 15.5007 6.22003 15.3773 6.33481L12.8554 8.61294C12.8132 8.65325 12.7659 8.68791 12.7148 8.71606L11.5617 9.35356C11.4517 9.41189 11.3298 9.44398 11.2054 9.44731H9.19917C9.05137 9.44807 8.90701 9.49193 8.78378 9.57353C8.66055 9.65513 8.56381 9.77091 8.50542 9.90669L7.72729 11.7536" stroke="#1A1A1A" stroke-width="1.5" stroke-linecap="round" stroke-linejoin="round"/>
</svg>
