<svg width="25" height="25" viewBox="0 0 25 25" fill="none" xmlns="http://www.w3.org/2000/svg">
<path d="M12.1988 6.94416C11.7001 5.96875 10.8875 5.18973 9.89184 4.73273C8.89623 4.27573 7.77571 4.16738 6.71098 4.42517C5.64626 4.68296 4.69939 5.29185 4.02308 6.15365C3.34677 7.01545 2.98044 8.07992 2.98317 9.17541C2.98317 15.5504 12.3582 20.8004 12.3582 20.8004C12.3582 20.8004 21.7332 15.5504 21.7332 9.17541C21.7343 8.21039 21.449 7.26675 20.9134 6.46401C20.3778 5.66127 19.616 5.03555 18.7245 4.6661C17.833 4.29665 16.8519 4.2001 15.9055 4.38868C14.9591 4.57726 14.09 5.04247 13.4082 5.72541L10.4082 8.72541L13.4082 11.7254L11.9082 13.2254" stroke="#1A1A1A" stroke-width="1.5" stroke-linecap="round" stroke-linejoin="round"/>
</svg>
