<svg width="25" height="25" viewBox="0 0 25 25" fill="none" xmlns="http://www.w3.org/2000/svg">
<path d="M8.76753 20.8005H4.57691C4.378 20.8005 4.18723 20.7214 4.04658 20.5808C3.90593 20.4401 3.82691 20.2494 3.82691 20.0505V15.8598C3.82657 15.7624 3.84544 15.6659 3.88244 15.5759C3.91944 15.4858 3.97384 15.4039 4.04253 15.3348L15.2925 4.08483C15.3623 4.01397 15.4455 3.95769 15.5372 3.91928C15.629 3.88087 15.7275 3.86108 15.8269 3.86108C15.9264 3.86108 16.0248 3.88087 16.1166 3.91928C16.2083 3.95769 16.2915 4.01397 16.3613 4.08483L20.5425 8.26608C20.6134 8.33587 20.6697 8.41905 20.7081 8.51079C20.7465 8.60253 20.7663 8.701 20.7663 8.80046C20.7663 8.89991 20.7465 8.99838 20.7081 9.09012C20.6697 9.18186 20.6134 9.26504 20.5425 9.33483L9.29253 20.5848C9.2235 20.6535 9.1416 20.7079 9.05151 20.7449C8.96142 20.7819 8.86492 20.8008 8.76753 20.8005V20.8005Z" stroke="#1A1A1A" stroke-width="1.5" stroke-linecap="round" stroke-linejoin="round"/>
<path d="M12.8269 6.55042L18.0769 11.8004" stroke="#1A1A1A" stroke-width="1.5" stroke-linecap="round" stroke-linejoin="round"/>
<path d="M15.4519 9.17542L6.4519 18.1754" stroke="#1A1A1A" stroke-width="1.5" stroke-linecap="round" stroke-linejoin="round"/>
<path d="M9.03003 20.7535L3.87378 15.5973" stroke="#1A1A1A" stroke-width="1.5" stroke-linecap="round" stroke-linejoin="round"/>
</svg>
