<svg width="25" height="25" viewBox="0 0 25 25" fill="none" xmlns="http://www.w3.org/2000/svg">
<path d="M21.7425 11.9129L8.2519 3.66294C8.13834 3.59289 8.00814 3.5544 7.87474 3.55145C7.74134 3.5485 7.60956 3.5812 7.49301 3.64616C7.37646 3.71112 7.27935 3.806 7.2117 3.92102C7.14404 4.03603 7.1083 4.16701 7.10815 4.30044V20.8004C7.1083 20.9339 7.14404 21.0649 7.2117 21.1799C7.27935 21.2949 7.37646 21.3898 7.49301 21.4547C7.60956 21.5197 7.74134 21.5524 7.87474 21.5494C8.00814 21.5465 8.13834 21.508 8.2519 21.4379L21.7425 13.1879C21.8533 13.1224 21.9451 13.0292 22.0089 12.9174C22.0726 12.8056 22.1062 12.6791 22.1062 12.5504C22.1062 12.4217 22.0726 12.2953 22.0089 12.1835C21.9451 12.0717 21.8533 11.9785 21.7425 11.9129V11.9129Z" stroke="#1A1A1A" stroke-width="1.5" stroke-linecap="round" stroke-linejoin="round"/>
</svg>
