<svg width="25" height="25" viewBox="0 0 25 25" fill="none" xmlns="http://www.w3.org/2000/svg">
<path d="M4.85815 13.6379V20.0504C4.85815 20.2494 4.93717 20.4401 5.07782 20.5808C5.21848 20.7214 5.40924 20.8004 5.60815 20.8004H19.1082C19.3071 20.8004 19.4978 20.7214 19.6385 20.5808C19.7791 20.4401 19.8582 20.2494 19.8582 20.0504V13.6379" stroke="#1A1A1A" stroke-width="1.5" stroke-linecap="round" stroke-linejoin="round"/>
<path d="M5.42065 4.30042H19.2957C19.4584 4.30175 19.6163 4.35532 19.7463 4.45321C19.8763 4.5511 19.9713 4.68815 20.0175 4.84416L21.3582 9.55042H3.35815L4.69878 4.84416C4.74497 4.68815 4.84006 4.5511 4.97002 4.45321C5.09998 4.35532 5.25795 4.30175 5.42065 4.30042V4.30042Z" stroke="#1A1A1A" stroke-width="1.5" stroke-linecap="round" stroke-linejoin="round"/>
<path d="M9.35815 9.55042V11.0504C9.35815 11.8461 9.04208 12.6091 8.47947 13.1717C7.91687 13.7343 7.1538 14.0504 6.35815 14.0504C5.5625 14.0504 4.79944 13.7343 4.23683 13.1717C3.67422 12.6091 3.35815 11.8461 3.35815 11.0504V9.55042" stroke="#1A1A1A" stroke-width="1.5" stroke-linecap="round" stroke-linejoin="round"/>
<path d="M15.3582 9.55042V11.0504C15.3582 11.8461 15.0421 12.6091 14.4795 13.1717C13.9169 13.7343 13.1538 14.0504 12.3582 14.0504C11.5625 14.0504 10.7994 13.7343 10.2368 13.1717C9.67422 12.6091 9.35815 11.8461 9.35815 11.0504V9.55042" stroke="#1A1A1A" stroke-width="1.5" stroke-linecap="round" stroke-linejoin="round"/>
<path d="M21.3582 9.55042V11.0504C21.3582 11.8461 21.0421 12.6091 20.4795 13.1717C19.9169 13.7343 19.1538 14.0504 18.3582 14.0504C17.5625 14.0504 16.7994 13.7343 16.2368 13.1717C15.6742 12.6091 15.3582 11.8461 15.3582 11.0504V9.55042" stroke="#1A1A1A" stroke-width="1.5" stroke-linecap="round" stroke-linejoin="round"/>
</svg>
