<svg width="25" height="25" viewBox="0 0 25 25" fill="none" xmlns="http://www.w3.org/2000/svg">
<path d="M5.37378 3.81458L20.3738 20.3146" stroke="#1A1A1A" stroke-width="1.5" stroke-linecap="round" stroke-linejoin="round"/>
<path d="M15.3957 14.8396C14.7076 15.47 13.8072 15.8181 12.8739 15.8146C12.117 15.8145 11.3779 15.5854 10.7536 15.1573C10.1294 14.7293 9.64929 14.1224 9.37643 13.4164C9.10357 12.7105 9.05073 11.9384 9.22485 11.2019C9.39897 10.4653 9.7919 9.79863 10.352 9.28955" stroke="#1A1A1A" stroke-width="1.5" stroke-linecap="round" stroke-linejoin="round"/>
<path d="M7.81128 6.49585C3.98628 8.4271 2.37378 12.0646 2.37378 12.0646C2.37378 12.0646 5.37378 18.8146 12.8738 18.8146C14.6312 18.8289 16.3667 18.424 17.9363 17.6333" stroke="#1A1A1A" stroke-width="1.5" stroke-linecap="round" stroke-linejoin="round"/>
<path d="M20.43 15.9177C22.4737 14.0896 23.3737 12.0646 23.3737 12.0646C23.3737 12.0646 20.3737 5.3146 12.8737 5.3146C12.2235 5.31331 11.5744 5.36663 10.9331 5.47397" stroke="#1A1A1A" stroke-width="1.5" stroke-linecap="round" stroke-linejoin="round"/>
<path d="M13.5769 8.38019C14.3744 8.53129 15.1011 8.93769 15.6473 9.53804C16.1936 10.1384 16.5297 10.9001 16.605 11.7083" stroke="#1A1A1A" stroke-width="1.5" stroke-linecap="round" stroke-linejoin="round"/>
</svg>
